# xmcd CD database file
#
# Track frame offsets:
#	150
#	13587
#	29009
#	47399
#	68547
#	85119
#	103063
#	121481
#	136053
#	149741
#	164669
#	178510
#	197840
#	210727
#	235344
#	248419
#	266237
#
# Disc length: 3722 seconds
#
# Revision: 2
# Processed by: cddbd v1.5.2PL0 Copyright (c) Steve Scherf et al.
# Submitted via: CDex 1.51
#
DISCID=f30e8811
DTITLE=TAKÁTS TAMÁS DIRTY BLUES BAND - Best Of - Pocsolyába Léptem
DYEAR=2000
DGENRE=Blues
TTITLE0=U.F.O.-t Lát A Yeti
TTITLE1=U.F.O.
TTITLE2=Indulok Tovább
TTITLE3=Szerelem
TTITLE4=Tokaj
TTITLE5=Kis U.F.O.
TTITLE6=Zakatol A Vonat
TTITLE7=Politikus
TTITLE8=Country
TTITLE9=Szegény Ember Blues
TTITLE10=Kemény Kézzel
TTITLE11=Húzom Az Igát
TTITLE12=Megöl A Vágy
TTITLE13=Pocsolyába Léptem
TTITLE14=Rolling Stones
TTITLE15=Laza Kapcsolat
TTITLE16=Ha Újra Itt Volnál
EXTD=YEAR: 2000
EXTT0=
EXTT1=
EXTT2=
EXTT3=
EXTT4=
EXTT5=
EXTT6=
EXTT7=
EXTT8=
EXTT9=
EXTT10=
EXTT11=
EXTT12=
EXTT13=
EXTT14=
EXTT15=
EXTT16=
PLAYORDER=
